HIERARCHY
ROOT Hips
{
	OFFSET 0.000000 0.000000 0.000000 
	CHANNELS 6 Xposition Yposition Zposition Yrotation Zrotation Xrotation 
	JOINT Lumbar
	{
		OFFSET 0.000000 0.000000 0.000000 
		CHANNELS 3 Zrotation Xrotation Yrotation
		JOINT Neck
		{
			OFFSET 0.000000 0.445665 0.000000 
			CHANNELS 3 Zrotation Xrotation Yrotation
			End Site
			{
				OFFSET 0.000000 0.227535 0.000000 
			}
		}
		JOINT RightShoulder
		{
			OFFSET 0.019635 0.377685 0.194865 
			CHANNELS 3 Zrotation Xrotation Yrotation
			JOINT RightElbow
			{
				OFFSET 0.000000 -0.243375 0.000000 
				CHANNELS 2 Zrotation Yrotation
				JOINT RightWrist
				{
					OFFSET 0.000000 -0.264825 0.000000 
					CHANNELS 2 Zrotation Xrotation
					End Site
					{
						OFFSET 0.006600 -0.176220 0.000990 
					}
				}
			}
		}
		JOINT LeftShoulder
		{
			OFFSET 0.019635 0.377685 -0.194865 
			CHANNELS 3 Zrotation Xrotation Yrotation
			JOINT LeftElbow
			{
				OFFSET 0.000000 -0.243375 0.000000 
				CHANNELS 2 Zrotation Yrotation
				JOINT LeftWrist
				{
					OFFSET 0.000000 -0.264825 0.000000 
					CHANNELS 2 Zrotation Xrotation
					End Site
					{
						OFFSET 0.006600 -0.176220 -0.000990 
					}
				}
			}
		}
	}
	JOINT RightHip
	{
		OFFSET 0.052140 -0.069960 0.075570 
		CHANNELS 3 Zrotation Xrotation Yrotation
		JOINT RightKnee
		{
			OFFSET 0.000000 -0.402270 0.000000 
			CHANNELS 1 Zrotation
			JOINT RightAnkle
			{
				OFFSET 0.000000 -0.404085 0.000000 
				CHANNELS 3 Zrotation Xrotation Yrotation
				End Site
				{
					OFFSET 0.204105 -0.089430 0.008415 
				}
			}
		}
	}
	JOINT LeftHip
	{
		OFFSET 0.052140 -0.069960 -0.075570 
		CHANNELS 3 Zrotation Xrotation Yrotation
		JOINT LeftKnee
		{
			OFFSET 0.000000 -0.402270 0.000000 
			CHANNELS 1 Zrotation
			JOINT LeftAnkle
			{
				OFFSET 0.000000 -0.404085 0.000000 
				CHANNELS 3 Zrotation Xrotation Yrotation
				End Site
				{
					OFFSET 0.204105 -0.089430 -0.008415 
				}
			}
		}
	}
}
MOTION
Frames: 27
Frame Time: 0.02
-4e-05 0.00015 -0.00025 25.34506 -35.40821 -4.59832 56.71798 -0.79842 -2.45829 -9.63308 -1.30945 -0.23989 167.36083 -75.14845 -43.80551 15.72222 87.50146 -5.72296 -10.88034 -7.22359 104.63738 90.00402 5.32872 -31.43699 -27.17518 -5.30691 48.45025 -3.12043 -11.00069 -18.51524 -7.18466 -4.34238 -2.92346 53.20893 2.99293 -3.15572 -24.1928 -9.36968 5.29797 3.70857
-0.00071 6e-05 9e-05 25.36652 -35.38364 -4.59945 56.65988 -0.81 -2.46373 -9.68707 -1.27787 -0.24031 167.29362 -75.09227 -43.9203 15.71191 87.50805 -5.69069 -10.8788 -7.39215 104.62633 90.00374 5.32873 -31.36592 -27.15141 -5.3326 48.47758 -3.06108 -10.60755 -18.51694 -7.2193 -4.37591 -2.94977 53.23361 3.08315 -2.73529 -24.19412 -9.33518 5.27702 3.68432
-0.00137 -3e-05 0.00043 25.38786 -35.35912 -4.60058 56.60182 -0.82153 -2.46911 -9.74089 -1.24643 -0.24073 167.22633 -75.03628 -44.03501 15.70158 87.51463 -5.65846 -10.87723 -7.56033 104.61534 90.0019 5.32875 -31.29547 -27.12722 -5.35813 48.5049 -3.00187 -10.21532 -18.51863 -7.25387 -4.40936 -2.97602 53.25826 3.17319 -2.31572 -24.19544 -9.30075 5.2561 3.66011
-0.00203 -0.00012 0.00078 25.40925 -35.33462 -4.60171 56.54389 -0.83307 -2.47452 -9.79471 -1.21496 -0.24114 167.15931 -74.98027 -44.14945 15.69128 87.5212 -5.62628 -10.87569 -7.72841 104.60428 90.00288 5.32876 -31.22425 -27.10387 -5.38383 48.53214 -2.94269 -9.82333 -18.52032 -7.28841 -4.44279 -3.00226 53.28286 3.26315 -1.89651 -24.19676 -9.26635 5.23521 3.63593
-0.00269 -0.00021 0.00112 25.43077 -35.31009 -4.60284 56.48595 -0.84468 -2.48002 -9.84867 -1.18336 -0.24156 167.09241 -74.92409 -44.26396 15.68104 87.52778 -5.59409 -10.87419 -7.89679 104.59327 90.00184 5.32877 -31.15345 -27.07998 -5.40946 48.55939 -2.88341 -9.43054 -18.52202 -7.32301 -4.47628 -3.02856 53.30749 3.35324 -1.47662 -24.19808 -9.23188 5.21431 3.61171
-0.00335 -0.00029 0.00146 25.45174 -35.28559 -4.60397 56.42764 -0.85603 -2.48513 -9.90219 -1.15227 -0.24199 167.02424 -74.8685 -44.37916 15.67053 87.53436 -5.56177 -10.87248 -8.06452 104.58237 89.99601 5.3288 -31.08444 -27.05451 -5.43463 48.58687 -2.82434 -9.03952 -18.52372 -7.3575 -4.50962 -3.0547 53.33219 3.44319 -1.05776 -24.19938 -9.19756 5.19334 3.58756
-0.00401 -0.00038 0.0018 25.47381 -35.26104 -4.60509 56.37019 -0.8679 -2.49102 -9.95658 -1.12016 -0.24238 166.95893 -74.81176 -44.49257 15.66055 87.54094 -5.52975 -10.8712 -8.23345 104.57096 90.01076 5.32877 -31.00875 -27.03529 -5.46142 48.6138 -2.7649 -8.64535 -18.52539 -7.39218 -4.54324 -3.08114 53.35668 3.53331 -0.63728 -24.20073 -9.16297 5.17253 3.56328
-0.00468 -0.00047 0.00214 25.49483 -35.23656 -4.60623 56.31186 -0.87927 -2.49617 -10.0101 -1.08901 -0.24283 166.89057 -74.75612 -44.60811 15.65013 87.54752 -5.49745 -10.86953 -8.40111 104.56059 89.98658 5.32885 -30.94497 -27.00474 -5.4854 48.64132 -2.70581 -8.25415 -18.52711 -7.42668 -4.57659 -3.10729 53.38143 3.62328 -0.21832 -24.20203 -9.12864 5.15158 3.53912
-0.00534 -0.00056 0.00249 25.51469 -35.21207 -4.60737 56.25273 -0.89009 -2.50049 -10.06286 -1.05896 -0.24325 166.82003 -74.70164 -44.72444 15.63893 87.55409 -5.4648 -10.86732 -8.56799 104.54923 89.99375 5.32883 -30.87298 -26.98237 -5.51112 48.66926 -2.6471 -7.8661 -18.52883 -7.46101 -4.6097 -3.13312 53.40624 3.7131 0.19915 -24.20327 -9.09455 5.13044 3.51508
-0.00598 -0.00065 0.00281 25.54163 -35.18735 -4.60844 56.19903 -0.90429 -2.50983 -10.12088 -1.02237 -0.24356 166.76668 -74.63991 -44.8308 15.6315 87.5607 -5.43413 -10.86802 -8.74169 104.53677 90.05779 5.32869 -30.77975 -26.97912 -5.54239 48.69386 -2.58604 -7.45845 -18.53036 -7.49645 -4.64446 -3.16092 53.42992 3.80391 0.62634 -24.20485 -9.05887 5.1103 3.49029
-0.00668 -0.00074 0.00318 25.55337 -35.16331 -4.6097 56.13338 -0.91121 -2.50842 -10.16722 -0.9997 -0.24427 166.67414 -74.59384 -44.96162 15.61657 87.56722 -5.39931 -10.8627 -8.89948 104.53095 89.85044 5.32925 -30.77507 -26.8933 -5.55203 48.72609 -2.53005 -7.09316 -18.53239 -7.52947 -4.67556 -3.18449 53.4565 3.89254 1.03222 -24.20573 -9.02668 5.08812 3.46713
-0.00753 -0.00085 0.00363 25.5248 -35.13952 -4.61112 56.03828 -0.89895 -2.47832 -10.18531 -1.01482 -0.24459 166.49687 -74.58823 -45.1332 15.57674 87.57333 -5.35249 -10.83918 -9.02739 104.5068 90.18022 5.32833 -30.64318 -26.9392 -5.58672 48.77524 -2.48715 -6.83734 -18.53508 -7.55633 -4.69767 -3.19695 53.48721 3.97591 1.38551 -24.20459 -9.00286 5.05969 3.44808
-0.00844 -0.00096 0.00411 25.48058 -35.11679 -4.61289 55.9304 -0.87912 -2.43717 -10.19044 -1.04408 -0.24557 166.27608 -74.5988 -45.33484 15.53003 87.57931 -5.30129 -10.80959 -9.13789 104.49515 90.0332 5.32887 -30.65903 -26.84576 -5.58649 48.83302 -2.44953 -6.62577 -18.53843 -7.58065 -4.71579 -3.205 53.52172 4.05701 1.71598 -24.20276 -8.98274 5.0293 3.43071
-0.00934 -0.00108 0.00459 25.44279 -35.09446 -4.61463 55.82638 -0.86234 -2.40064 -10.19965 -1.06705 -0.24724 166.06023 -74.6036 -45.53916 15.48945 87.58552 -5.25293 -10.78431 -9.24596 104.50281 89.22455 5.33077 -30.86164 -26.56929 -5.544 48.8892 -2.40994 -6.39777 -18.54188 -7.60583 -4.73517 -3.21483 53.55676 4.13858 2.05351 -24.20137 -8.96172 5.00024 3.41282
-0.01017 -0.00118 0.00503 25.40837 -35.06798 -4.61544 55.73119 -0.84762 -2.36617 -10.21858 -1.08916 -0.24482 165.90668 -74.60172 -45.67205 15.43674 87.59123 -5.20235 -10.75387 -9.39311 104.40882 91.98536 5.32356 -30.03322 -27.29135 -5.73678 48.93472 -2.36834 -6.15238 -18.5435 -7.63233 -4.75734 -3.22588 53.58151 4.22227 2.4064 -24.19954 -8.93745 4.9694 3.39394
-0.01116 -0.00131 0.00556 25.36257 -35.05097 -4.61872 55.61376 -0.82629 -2.32433 -10.21156 -1.1168 -0.25096 165.61336 -74.61763 -45.964 15.40694 87.59767 -5.15364 -10.73097 -9.46043 104.52473 87.371 5.33638 -31.33644 -25.95226 -5.44385 49.00558 -2.33242 -5.95615 -18.54925 -7.65539 -4.77219 -3.23301 53.62953 4.3013 2.72011 -24.19835 -8.92078 4.94171 3.37748
-0.01255 -0.0015 0.00632 25.29478 -35.05497 -4.62461 55.44476 -0.79313 -2.26889 -10.1592 -1.15278 -0.28152 164.93926 -74.67824 -46.66306 15.44759 87.60816 -5.12554 -10.74539 -9.26444 105.2588 61.01831 5.39779 -38.92897 -18.50996 -3.70935 49.13533 -2.30864 -5.86253 -18.56509 -7.67028 -4.7729 -3.2333 53.73324 4.36544 2.94711 -24.2001 -8.92456 4.92416 3.36772
-0.01411 -0.00171 0.00717 25.21511 -35.06939 -4.63359 55.2524 -0.75284 -2.20571 -10.07725 -1.19443 -0.32052 164.12504 -74.75619 -47.52718 15.51006 87.61865 -5.09653 -10.76476 -8.99868 106.19624 27.53266 5.48035 -48.58138 -9.08009 -1.50709 49.29212 -2.29069 -5.82008 -18.58535 -7.68173 -4.76559 -3.22935 53.8618 4.42538 3.13294 -24.20238 -8.93585 4.90971 3.36027
-0.01562 -0.00192 0.008 25.13708 -35.08222 -4.64401 55.0665 -0.71266 -2.14339 -9.9932 -1.23579 -0.35504 163.38115 -74.8266 -48.33015 15.55953 87.62831 -5.05883 -10.77207 -8.79426 107.01282 -1.70325 5.55758 -57.00024 -0.85428 0.40899 49.44223 -2.27166 -5.76999 -18.60428 -7.69419 -4.75842 -3.22529 53.98385 4.48904 3.32664 -24.20369 -8.94342 4.89319 3.35146
-0.01701 -0.00211 0.00877 25.07402 -35.08175 -4.64296 54.8983 -0.6849 -2.09176 -9.97273 -1.26816 -0.39227 162.61592 -74.89649 -49.06986 15.62367 87.643 -5.06046 -10.82076 -8.45929 107.94848 -35.18932 5.61736 -66.67241 8.64074 2.63504 49.56831 -2.24661 -5.65933 -18.62014 -7.70858 -4.76526 -3.22925 54.0853 4.54529 3.56353 -24.20785 -8.95223 4.87928 3.34396
-0.01869 -0.00235 0.00969 24.97762 -35.11151 -4.66587 54.6871 -0.63031 -2.01632 -9.81496 -1.32018 -0.42586 161.85204 -74.97091 -49.98741 15.66016 87.64531 -4.97869 -10.78429 -8.38597 108.68604 -61.53901 5.71774 -74.23082 15.96938 4.32861 49.75156 -2.23492 -5.68166 -18.64372 -7.71855 -4.74189 -3.21606 54.2362 4.61562 3.70323 -24.20648 -8.96043 4.86083 3.33434
-0.0211 -0.00275 0.011 24.78847 -35.22168 -4.75971 54.36905 -0.49816 -1.87587 -9.26791 -1.42699 -0.44717 161.20857 -75.05821 -51.29215 15.63425 87.63127 -4.67776 -10.512 -9.0017 108.80929 -66.16237 5.93185 -75.36231 16.76285 4.41246 50.07972 -2.26284 -6.09851 -18.68547 -7.71411 -4.63017 -3.15252 54.51236 4.72931 3.56552 -24.18769 -8.96289 4.82781 3.31757
-0.02382 -0.00322 0.01247 24.56715 -35.36211 -4.8765 54.00722 -0.34032 -1.71203 -8.58682 -1.55294 -0.46453 160.5514 -75.14899 -52.78102 15.5755 87.6026 -4.29064 -10.15288 -9.89338 108.72806 -63.38976 6.18509 -74.30878 15.31637 3.94695 50.46601 -2.30317 -6.63931 -18.73556 -7.70598 -4.4897 -3.07269 54.83879 4.85671 3.33528 -24.16396 -8.96486 4.79029 3.29869
-0.02642 -0.00366 0.01387 24.36268 -35.48891 -4.97916 53.66178 -0.19763 -1.55963 -7.97877 -1.66881 -0.4838 159.85266 -75.23445 -54.22817 15.52009 87.56748 -3.93624 -9.8343 -10.69109 108.75354 -64.20254 6.41561 -74.31388 14.94216 3.75137 50.82936 -2.33512 -7.09766 -18.78275 -7.70145 -4.36685 -3.00294 55.14508 4.97556 3.15987 -24.1435 -8.96848 4.75575 3.2813
-0.02892 -0.00409 0.01524 24.14743 -35.61518 -5.0976 53.33132 -0.03979 -1.40331 -7.31924 -1.79072 -0.50291 159.37014 -75.33434 -55.50747 15.51724 87.58292 -3.61023 -9.51495 -11.35081 108.73332 -64.38675 6.66659 -74.12211 14.42004 3.49394 51.17747 -2.37902 -7.67008 -18.82496 -7.68841 -4.22421 -2.92154 55.43918 5.10398 2.9284 -24.11767 -8.96634 4.71764 3.2619
-0.0317 -0.00456 0.01672 23.94831 -35.75009 -5.18852 52.95833 0.09226 -1.24997 -6.73455 -1.90451 -0.52128 158.41161 -75.40726 -57.17354 15.39318 87.49554 -3.20313 -9.17196 -12.3679 108.75033 -63.94432 6.88538 -73.78427 13.63317 3.21953 51.57268 -2.40068 -8.03117 -18.88119 -7.69262 -4.11642 -2.86082 55.77233 5.21591 2.79309 -24.10315 -8.97596 4.68554 3.24599
-0.03513 -0.00512 0.01844 23.79181 -35.89682 -5.19819 52.48886 0.14885 -1.10836 -6.39753 -1.99131 -0.53883 156.34075 -75.38117 -59.86503 14.97941 87.07386 -2.618 -8.82676 -14.24107 108.969 -64.32673 6.99849 -73.6623 12.78113 3.11412 52.06721 -2.36037 -7.80192 -18.95971 -7.74213 -4.10861 -2.85924 56.1833 5.27753 2.93862 -24.11044 -9.01825 4.6738 3.24159
